<?xml version="1.0" standalone="no"?>
<!DOCTYPE svg PUBLIC "-//W3C//DTD SVG 20010904//EN"
 "http://www.w3.org/TR/2001/REC-SVG-20010904/DTD/svg10.dtd">
<svg version="1.0" xmlns="http://www.w3.org/2000/svg"
 width="109.000000pt" height="91.000000pt" viewBox="0 0 109.000000 91.000000"
 preserveAspectRatio="xMidYMid meet">

<g transform="translate(0.000000,91.000000) scale(0.100000,-0.100000)"
fill="#000000" stroke="none">
<path d="M407 886 c-207 -86 -322 -307 -276 -528 28 -135 125 -260 247 -320
65 -32 70 -33 197 -33 127 0 132 1 197 33 153 75 258 245 258 417 0 172 -105
342 -258 417 -62 31 -74 33 -187 36 -108 2 -126 0 -178 -22z m257 -235 c26
-27 31 -39 31 -80 0 -52 -27 -94 -70 -111 -17 -6 -12 -11 31 -29 85 -37 131
-134 84 -181 -18 -18 -33 -20 -160 -20 -127 0 -142 2 -160 20 -50 50 -1 146
95 186 35 14 37 18 20 24 -43 17 -70 59 -70 110 0 51 26 92 70 111 37 16 96 3
129 -30z"/>
</g>
</svg>
